<svg width="1952" height="1952" viewBox="0 0 1952 1952" fill="none" xmlns="http://www.w3.org/2000/svg" xmlns:xlink="http://www.w3.org/1999/xlink">
<g id="Repeat group 2_inner" data-figma-trr="l25p80-0f_r15u80-0f">
<circle cx="15.5449" cy="815.545" r="2" fill="white" fill-opacity="0.5"/>
</g>
<use xlink:href="#Repeat%20group%202_inner" transform="translate(80)"/>
<use xlink:href="#Repeat%20group%202_inner" transform="translate(160)"/>
<use xlink:href="#Repeat%20group%202_inner" transform="translate(240)"/>
<use xlink:href="#Repeat%20group%202_inner" transform="translate(320)"/>
<use xlink:href="#Repeat%20group%202_inner" transform="translate(400)"/>
<use xlink:href="#Repeat%20group%202_inner" transform="translate(480)"/>
<use xlink:href="#Repeat%20group%202_inner" transform="translate(560)"/>
<use xlink:href="#Repeat%20group%202_inner" transform="translate(640)"/>
<use xlink:href="#Repeat%20group%202_inner" transform="translate(720)"/>
<use xlink:href="#Repeat%20group%202_inner" transform="translate(800)"/>
<use xlink:href="#Repeat%20group%202_inner" transform="translate(880)"/>
<use xlink:href="#Repeat%20group%202_inner" transform="translate(960)"/>
<use xlink:href="#Repeat%20group%202_inner" transform="translate(1040)"/>
<use xlink:href="#Repeat%20group%202_inner" transform="translate(1120)"/>
<use xlink:href="#Repeat%20group%202_inner" transform="translate(1200)"/>
<use xlink:href="#Repeat%20group%202_inner" transform="translate(1280)"/>
<use xlink:href="#Repeat%20group%202_inner" transform="translate(1360)"/>
<use xlink:href="#Repeat%20group%202_inner" transform="translate(1440)"/>
<use xlink:href="#Repeat%20group%202_inner" transform="translate(1520)"/>
<use xlink:href="#Repeat%20group%202_inner" transform="translate(1600)"/>
<use xlink:href="#Repeat%20group%202_inner" transform="translate(1680)"/>
<use xlink:href="#Repeat%20group%202_inner" transform="translate(1760)"/>
<use xlink:href="#Repeat%20group%202_inner" transform="translate(1840)"/>
<use xlink:href="#Repeat%20group%202_inner" transform="translate(1920)"/>
<use xlink:href="#Repeat%20group%202_inner" transform="translate(481.13 -312.45) rotate(24)"/>
<use xlink:href="#Repeat%20group%202_inner" transform="translate(554.214 -279.911) rotate(24)"/>
<use xlink:href="#Repeat%20group%202_inner" transform="translate(627.297 -247.372) rotate(24)"/>
<use xlink:href="#Repeat%20group%202_inner" transform="translate(700.381 -214.833) rotate(24)"/>
<use xlink:href="#Repeat%20group%202_inner" transform="translate(773.465 -182.294) rotate(24)"/>
<use xlink:href="#Repeat%20group%202_inner" transform="translate(846.548 -149.755) rotate(24)"/>
<use xlink:href="#Repeat%20group%202_inner" transform="translate(919.632 -117.216) rotate(24)"/>
<use xlink:href="#Repeat%20group%202_inner" transform="translate(992.716 -84.6771) rotate(24)"/>
<use xlink:href="#Repeat%20group%202_inner" transform="translate(1065.8 -52.1381) rotate(24)"/>
<use xlink:href="#Repeat%20group%202_inner" transform="translate(1138.88 -19.5992) rotate(24)"/>
<use xlink:href="#Repeat%20group%202_inner" transform="translate(1211.97 12.9397) rotate(24)"/>
<use xlink:href="#Repeat%20group%202_inner" transform="translate(1285.05 45.4787) rotate(24)"/>
<use xlink:href="#Repeat%20group%202_inner" transform="translate(1358.13 78.0176) rotate(24)"/>
<use xlink:href="#Repeat%20group%202_inner" transform="translate(1431.22 110.557) rotate(24)"/>
<use xlink:href="#Repeat%20group%202_inner" transform="translate(1504.3 143.095) rotate(24)"/>
<use xlink:href="#Repeat%20group%202_inner" transform="translate(1577.38 175.634) rotate(24)"/>
<use xlink:href="#Repeat%20group%202_inner" transform="translate(1650.47 208.173) rotate(24)"/>
<use xlink:href="#Repeat%20group%202_inner" transform="translate(1723.55 240.712) rotate(24)"/>
<use xlink:href="#Repeat%20group%202_inner" transform="translate(1796.64 273.251) rotate(24)"/>
<use xlink:href="#Repeat%20group%202_inner" transform="translate(1869.72 305.79) rotate(24)"/>
<use xlink:href="#Repeat%20group%202_inner" transform="translate(1942.8 338.329) rotate(24)"/>
<use xlink:href="#Repeat%20group%202_inner" transform="translate(2015.89 370.868) rotate(24)"/>
<use xlink:href="#Repeat%20group%202_inner" transform="translate(2088.97 403.407) rotate(24)"/>
<use xlink:href="#Repeat%20group%202_inner" transform="translate(2162.05 435.946) rotate(24)"/>
<use xlink:href="#Repeat%20group%202_inner" transform="translate(2235.14 468.485) rotate(24)"/>
<use xlink:href="#Repeat%20group%202_inner" transform="translate(1047.75 -402.193) rotate(48)"/>
<use xlink:href="#Repeat%20group%202_inner" transform="translate(1101.28 -342.742) rotate(48)"/>
<use xlink:href="#Repeat%20group%202_inner" transform="translate(1154.81 -283.29) rotate(48)"/>
<use xlink:href="#Repeat%20group%202_inner" transform="translate(1208.34 -223.838) rotate(48)"/>
<use xlink:href="#Repeat%20group%202_inner" transform="translate(1261.87 -164.387) rotate(48)"/>
<use xlink:href="#Repeat%20group%202_inner" transform="translate(1315.4 -104.935) rotate(48)"/>
<use xlink:href="#Repeat%20group%202_inner" transform="translate(1368.93 -45.4837) rotate(48)"/>
<use xlink:href="#Repeat%20group%202_inner" transform="translate(1422.46 13.9679) rotate(48)"/>
<use xlink:href="#Repeat%20group%202_inner" transform="translate(1475.99 73.4195) rotate(48)"/>
<use xlink:href="#Repeat%20group%202_inner" transform="translate(1529.52 132.871) rotate(48)"/>
<use xlink:href="#Repeat%20group%202_inner" transform="translate(1583.05 192.323) rotate(48)"/>
<use xlink:href="#Repeat%20group%202_inner" transform="translate(1636.58 251.774) rotate(48)"/>
<use xlink:href="#Repeat%20group%202_inner" transform="translate(1690.11 311.226) rotate(48)"/>
<use xlink:href="#Repeat%20group%202_inner" transform="translate(1743.65 370.677) rotate(48)"/>
<use xlink:href="#Repeat%20group%202_inner" transform="translate(1797.18 430.129) rotate(48)"/>
<use xlink:href="#Repeat%20group%202_inner" transform="translate(1850.71 489.581) rotate(48)"/>
<use xlink:href="#Repeat%20group%202_inner" transform="translate(1904.24 549.032) rotate(48)"/>
<use xlink:href="#Repeat%20group%202_inner" transform="translate(1957.77 608.484) rotate(48)"/>
<use xlink:href="#Repeat%20group%202_inner" transform="translate(2011.3 667.935) rotate(48)"/>
<use xlink:href="#Repeat%20group%202_inner" transform="translate(2064.83 727.387) rotate(48)"/>
<use xlink:href="#Repeat%20group%202_inner" transform="translate(2118.36 786.839) rotate(48)"/>
<use xlink:href="#Repeat%20group%202_inner" transform="translate(2171.89 846.29) rotate(48)"/>
<use xlink:href="#Repeat%20group%202_inner" transform="translate(2225.42 905.742) rotate(48)"/>
<use xlink:href="#Repeat%20group%202_inner" transform="translate(2278.95 965.193) rotate(48)"/>
<use xlink:href="#Repeat%20group%202_inner" transform="translate(2332.48 1024.64) rotate(48)"/>
<use xlink:href="#Repeat%20group%202_inner" transform="translate(1601.88 -253.713) rotate(72)"/>
<use xlink:href="#Repeat%20group%202_inner" transform="translate(1626.6 -177.629) rotate(72)"/>
<use xlink:href="#Repeat%20group%202_inner" transform="translate(1651.33 -101.544) rotate(72)"/>
<use xlink:href="#Repeat%20group%202_inner" transform="translate(1676.05 -25.4598) rotate(72)"/>
<use xlink:href="#Repeat%20group%202_inner" transform="translate(1700.77 50.6247) rotate(72)"/>
<use xlink:href="#Repeat%20group%202_inner" transform="translate(1725.49 126.709) rotate(72)"/>
<use xlink:href="#Repeat%20group%202_inner" transform="translate(1750.21 202.794) rotate(72)"/>
<use xlink:href="#Repeat%20group%202_inner" transform="translate(1774.93 278.878) rotate(72)"/>
<use xlink:href="#Repeat%20group%202_inner" transform="translate(1799.65 354.963) rotate(72)"/>
<use xlink:href="#Repeat%20group%202_inner" transform="translate(1824.38 431.047) rotate(72)"/>
<use xlink:href="#Repeat%20group%202_inner" transform="translate(1849.1 507.132) rotate(72)"/>
<use xlink:href="#Repeat%20group%202_inner" transform="translate(1873.82 583.216) rotate(72)"/>
<use xlink:href="#Repeat%20group%202_inner" transform="translate(1898.54 659.301) rotate(72)"/>
<use xlink:href="#Repeat%20group%202_inner" transform="translate(1923.26 735.385) rotate(72)"/>
<use xlink:href="#Repeat%20group%202_inner" transform="translate(1947.98 811.47) rotate(72)"/>
<use xlink:href="#Repeat%20group%202_inner" transform="translate(1972.7 887.554) rotate(72)"/>
<use xlink:href="#Repeat%20group%202_inner" transform="translate(1997.43 963.639) rotate(72)"/>
<use xlink:href="#Repeat%20group%202_inner" transform="translate(2022.15 1039.72) rotate(72)"/>
<use xlink:href="#Repeat%20group%202_inner" transform="translate(2046.87 1115.81) rotate(72)"/>
<use xlink:href="#Repeat%20group%202_inner" transform="translate(2071.59 1191.89) rotate(72)"/>
<use xlink:href="#Repeat%20group%202_inner" transform="translate(2096.31 1267.98) rotate(72)"/>
<use xlink:href="#Repeat%20group%202_inner" transform="translate(2121.03 1344.06) rotate(72)"/>
<use xlink:href="#Repeat%20group%202_inner" transform="translate(2145.75 1420.15) rotate(72)"/>
<use xlink:href="#Repeat%20group%202_inner" transform="translate(2170.47 1496.23) rotate(72)"/>
<use xlink:href="#Repeat%20group%202_inner" transform="translate(2195.2 1572.32) rotate(72)"/>
<use xlink:href="#Repeat%20group%202_inner" transform="translate(2047.72 107.316) rotate(96)"/>
<use xlink:href="#Repeat%20group%202_inner" transform="translate(2039.36 186.878) rotate(96)"/>
<use xlink:href="#Repeat%20group%202_inner" transform="translate(2030.99 266.44) rotate(96)"/>
<use xlink:href="#Repeat%20group%202_inner" transform="translate(2022.63 346.002) rotate(96)"/>
<use xlink:href="#Repeat%20group%202_inner" transform="translate(2014.27 425.563) rotate(96)"/>
<use xlink:href="#Repeat%20group%202_inner" transform="translate(2005.91 505.125) rotate(96)"/>
<use xlink:href="#Repeat%20group%202_inner" transform="translate(1997.54 584.687) rotate(96)"/>
<use xlink:href="#Repeat%20group%202_inner" transform="translate(1989.18 664.249) rotate(96)"/>
<use xlink:href="#Repeat%20group%202_inner" transform="translate(1980.82 743.81) rotate(96)"/>
<use xlink:href="#Repeat%20group%202_inner" transform="translate(1972.46 823.372) rotate(96)"/>
<use xlink:href="#Repeat%20group%202_inner" transform="translate(1964.1 902.934) rotate(96)"/>
<use xlink:href="#Repeat%20group%202_inner" transform="translate(1955.73 982.496) rotate(96)"/>
<use xlink:href="#Repeat%20group%202_inner" transform="translate(1947.37 1062.06) rotate(96)"/>
<use xlink:href="#Repeat%20group%202_inner" transform="translate(1939.01 1141.62) rotate(96)"/>
<use xlink:href="#Repeat%20group%202_inner" transform="translate(1930.65 1221.18) rotate(96)"/>
<use xlink:href="#Repeat%20group%202_inner" transform="translate(1922.28 1300.74) rotate(96)"/>
<use xlink:href="#Repeat%20group%202_inner" transform="translate(1913.92 1380.3) rotate(96)"/>
<use xlink:href="#Repeat%20group%202_inner" transform="translate(1905.56 1459.87) rotate(96)"/>
<use xlink:href="#Repeat%20group%202_inner" transform="translate(1897.2 1539.43) rotate(96)"/>
<use xlink:href="#Repeat%20group%202_inner" transform="translate(1888.83 1618.99) rotate(96)"/>
<use xlink:href="#Repeat%20group%202_inner" transform="translate(1880.47 1698.55) rotate(96)"/>
<use xlink:href="#Repeat%20group%202_inner" transform="translate(1872.11 1778.11) rotate(96)"/>
<use xlink:href="#Repeat%20group%202_inner" transform="translate(1863.75 1857.67) rotate(96)"/>
<use xlink:href="#Repeat%20group%202_inner" transform="translate(1855.39 1937.24) rotate(96)"/>
<use xlink:href="#Repeat%20group%202_inner" transform="translate(1847.02 2016.8) rotate(96)"/>
<use xlink:href="#Repeat%20group%202_inner" transform="translate(2308.16 618.471) rotate(120)"/>
<use xlink:href="#Repeat%20group%202_inner" transform="translate(2268.16 687.753) rotate(120)"/>
<use xlink:href="#Repeat%20group%202_inner" transform="translate(2228.16 757.035) rotate(120)"/>
<use xlink:href="#Repeat%20group%202_inner" transform="translate(2188.16 826.317) rotate(120)"/>
<use xlink:href="#Repeat%20group%202_inner" transform="translate(2148.16 895.599) rotate(120)"/>
<use xlink:href="#Repeat%20group%202_inner" transform="translate(2108.16 964.881) rotate(120)"/>
<use xlink:href="#Repeat%20group%202_inner" transform="translate(2068.16 1034.16) rotate(120)"/>
<use xlink:href="#Repeat%20group%202_inner" transform="translate(2028.16 1103.45) rotate(120)"/>
<use xlink:href="#Repeat%20group%202_inner" transform="translate(1988.16 1172.73) rotate(120)"/>
<use xlink:href="#Repeat%20group%202_inner" transform="translate(1948.16 1242.01) rotate(120)"/>
<use xlink:href="#Repeat%20group%202_inner" transform="translate(1908.16 1311.29) rotate(120)"/>
<use xlink:href="#Repeat%20group%202_inner" transform="translate(1868.16 1380.57) rotate(120)"/>
<use xlink:href="#Repeat%20group%202_inner" transform="translate(1828.16 1449.86) rotate(120)"/>
<use xlink:href="#Repeat%20group%202_inner" transform="translate(1788.16 1519.14) rotate(120)"/>
<use xlink:href="#Repeat%20group%202_inner" transform="translate(1748.16 1588.42) rotate(120)"/>
<use xlink:href="#Repeat%20group%202_inner" transform="translate(1708.16 1657.7) rotate(120)"/>
<use xlink:href="#Repeat%20group%202_inner" transform="translate(1668.16 1726.98) rotate(120)"/>
<use xlink:href="#Repeat%20group%202_inner" transform="translate(1628.16 1796.27) rotate(120)"/>
<use xlink:href="#Repeat%20group%202_inner" transform="translate(1588.16 1865.55) rotate(120)"/>
<use xlink:href="#Repeat%20group%202_inner" transform="translate(1548.16 1934.83) rotate(120)"/>
<use xlink:href="#Repeat%20group%202_inner" transform="translate(1508.16 2004.11) rotate(120)"/>
<use xlink:href="#Repeat%20group%202_inner" transform="translate(1468.16 2073.39) rotate(120)"/>
<use xlink:href="#Repeat%20group%202_inner" transform="translate(1428.16 2142.68) rotate(120)"/>
<use xlink:href="#Repeat%20group%202_inner" transform="translate(1388.16 2211.96) rotate(120)"/>
<use xlink:href="#Repeat%20group%202_inner" transform="translate(1348.16 2281.24) rotate(120)"/>
<use xlink:href="#Repeat%20group%202_inner" transform="translate(2338.19 1191.37) rotate(144)"/>
<use xlink:href="#Repeat%20group%202_inner" transform="translate(2273.47 1238.39) rotate(144)"/>
<use xlink:href="#Repeat%20group%202_inner" transform="translate(2208.75 1285.41) rotate(144)"/>
<use xlink:href="#Repeat%20group%202_inner" transform="translate(2144.02 1332.44) rotate(144)"/>
<use xlink:href="#Repeat%20group%202_inner" transform="translate(2079.3 1379.46) rotate(144)"/>
<use xlink:href="#Repeat%20group%202_inner" transform="translate(2014.58 1426.48) rotate(144)"/>
<use xlink:href="#Repeat%20group%202_inner" transform="translate(1949.86 1473.5) rotate(144)"/>
<use xlink:href="#Repeat%20group%202_inner" transform="translate(1885.14 1520.53) rotate(144)"/>
<use xlink:href="#Repeat%20group%202_inner" transform="translate(1820.42 1567.55) rotate(144)"/>
<use xlink:href="#Repeat%20group%202_inner" transform="translate(1755.7 1614.57) rotate(144)"/>
<use xlink:href="#Repeat%20group%202_inner" transform="translate(1690.97 1661.59) rotate(144)"/>
<use xlink:href="#Repeat%20group%202_inner" transform="translate(1626.25 1708.62) rotate(144)"/>
<use xlink:href="#Repeat%20group%202_inner" transform="translate(1561.53 1755.64) rotate(144)"/>
<use xlink:href="#Repeat%20group%202_inner" transform="translate(1496.81 1802.66) rotate(144)"/>
<use xlink:href="#Repeat%20group%202_inner" transform="translate(1432.09 1849.69) rotate(144)"/>
<use xlink:href="#Repeat%20group%202_inner" transform="translate(1367.37 1896.71) rotate(144)"/>
<use xlink:href="#Repeat%20group%202_inner" transform="translate(1302.65 1943.73) rotate(144)"/>
<use xlink:href="#Repeat%20group%202_inner" transform="translate(1237.93 1990.75) rotate(144)"/>
<use xlink:href="#Repeat%20group%202_inner" transform="translate(1173.2 2037.78) rotate(144)"/>
<use xlink:href="#Repeat%20group%202_inner" transform="translate(1108.48 2084.8) rotate(144)"/>
<use xlink:href="#Repeat%20group%202_inner" transform="translate(1043.76 2131.82) rotate(144)"/>
<use xlink:href="#Repeat%20group%202_inner" transform="translate(979.04 2178.85) rotate(144)"/>
<use xlink:href="#Repeat%20group%202_inner" transform="translate(914.318 2225.87) rotate(144)"/>
<use xlink:href="#Repeat%20group%202_inner" transform="translate(849.597 2272.89) rotate(144)"/>
<use xlink:href="#Repeat%20group%202_inner" transform="translate(784.876 2319.91) rotate(144)"/>
<use xlink:href="#Repeat%20group%202_inner" transform="translate(2132.6 1726.94) rotate(168)"/>
<use xlink:href="#Repeat%20group%202_inner" transform="translate(2054.35 1743.58) rotate(168)"/>
<use xlink:href="#Repeat%20group%202_inner" transform="translate(1976.1 1760.21) rotate(168)"/>
<use xlink:href="#Repeat%20group%202_inner" transform="translate(1897.84 1776.84) rotate(168)"/>
<use xlink:href="#Repeat%20group%202_inner" transform="translate(1819.59 1793.48) rotate(168)"/>
<use xlink:href="#Repeat%20group%202_inner" transform="translate(1741.34 1810.11) rotate(168)"/>
<use xlink:href="#Repeat%20group%202_inner" transform="translate(1663.09 1826.74) rotate(168)"/>
<use xlink:href="#Repeat%20group%202_inner" transform="translate(1584.84 1843.38) rotate(168)"/>
<use xlink:href="#Repeat%20group%202_inner" transform="translate(1506.58 1860.01) rotate(168)"/>
<use xlink:href="#Repeat%20group%202_inner" transform="translate(1428.33 1876.64) rotate(168)"/>
<use xlink:href="#Repeat%20group%202_inner" transform="translate(1350.08 1893.27) rotate(168)"/>
<use xlink:href="#Repeat%20group%202_inner" transform="translate(1271.83 1909.91) rotate(168)"/>
<use xlink:href="#Repeat%20group%202_inner" transform="translate(1193.58 1926.54) rotate(168)"/>
<use xlink:href="#Repeat%20group%202_inner" transform="translate(1115.33 1943.17) rotate(168)"/>
<use xlink:href="#Repeat%20group%202_inner" transform="translate(1037.07 1959.81) rotate(168)"/>
<use xlink:href="#Repeat%20group%202_inner" transform="translate(958.822 1976.44) rotate(168)"/>
<use xlink:href="#Repeat%20group%202_inner" transform="translate(880.57 1993.07) rotate(168)"/>
<use xlink:href="#Repeat%20group%202_inner" transform="translate(802.318 2009.7) rotate(168)"/>
<use xlink:href="#Repeat%20group%202_inner" transform="translate(724.067 2026.34) rotate(168)"/>
<use xlink:href="#Repeat%20group%202_inner" transform="translate(645.815 2042.97) rotate(168)"/>
<use xlink:href="#Repeat%20group%202_inner" transform="translate(567.563 2059.6) rotate(168)"/>
<use xlink:href="#Repeat%20group%202_inner" transform="translate(489.311 2076.24) rotate(168)"/>
<use xlink:href="#Repeat%20group%202_inner" transform="translate(411.059 2092.87) rotate(168)"/>
<use xlink:href="#Repeat%20group%202_inner" transform="translate(332.807 2109.5) rotate(168)"/>
<use xlink:href="#Repeat%20group%202_inner" transform="translate(254.556 2126.14) rotate(168)"/>
<use xlink:href="#Repeat%20group%202_inner" transform="translate(1726.94 2132.6) rotate(-168)"/>
<use xlink:href="#Repeat%20group%202_inner" transform="translate(1648.69 2115.97) rotate(-168)"/>
<use xlink:href="#Repeat%20group%202_inner" transform="translate(1570.44 2099.33) rotate(-168)"/>
<use xlink:href="#Repeat%20group%202_inner" transform="translate(1492.19 2082.7) rotate(-168)"/>
<use xlink:href="#Repeat%20group%202_inner" transform="translate(1413.94 2066.07) rotate(-168)"/>
<use xlink:href="#Repeat%20group%202_inner" transform="translate(1335.69 2049.43) rotate(-168)"/>
<use xlink:href="#Repeat%20group%202_inner" transform="translate(1257.43 2032.8) rotate(-168)"/>
<use xlink:href="#Repeat%20group%202_inner" transform="translate(1179.18 2016.17) rotate(-168)"/>
<use xlink:href="#Repeat%20group%202_inner" transform="translate(1100.93 1999.54) rotate(-168)"/>
<use xlink:href="#Repeat%20group%202_inner" transform="translate(1022.68 1982.9) rotate(-168)"/>
<use xlink:href="#Repeat%20group%202_inner" transform="translate(944.427 1966.27) rotate(-168)"/>
<use xlink:href="#Repeat%20group%202_inner" transform="translate(866.175 1949.64) rotate(-168)"/>
<use xlink:href="#Repeat%20group%202_inner" transform="translate(787.923 1933) rotate(-168)"/>
<use xlink:href="#Repeat%20group%202_inner" transform="translate(709.671 1916.37) rotate(-168)"/>
<use xlink:href="#Repeat%20group%202_inner" transform="translate(631.419 1899.74) rotate(-168)"/>
<use xlink:href="#Repeat%20group%202_inner" transform="translate(553.168 1883.11) rotate(-168)"/>
<use xlink:href="#Repeat%20group%202_inner" transform="translate(474.916 1866.47) rotate(-168)"/>
<use xlink:href="#Repeat%20group%202_inner" transform="translate(396.664 1849.84) rotate(-168)"/>
<use xlink:href="#Repeat%20group%202_inner" transform="translate(318.412 1833.21) rotate(-168)"/>
<use xlink:href="#Repeat%20group%202_inner" transform="translate(240.16 1816.57) rotate(-168)"/>
<use xlink:href="#Repeat%20group%202_inner" transform="translate(161.909 1799.94) rotate(-168)"/>
<use xlink:href="#Repeat%20group%202_inner" transform="translate(83.6567 1783.31) rotate(-168)"/>
<use xlink:href="#Repeat%20group%202_inner" transform="translate(5.4049 1766.67) rotate(-168)"/>
<use xlink:href="#Repeat%20group%202_inner" transform="translate(-72.8469 1750.04) rotate(-168)"/>
<use xlink:href="#Repeat%20group%202_inner" transform="translate(-151.099 1733.41) rotate(-168)"/>
<use xlink:href="#Repeat%20group%202_inner" transform="translate(1191.37 2338.19) rotate(-144)"/>
<use xlink:href="#Repeat%20group%202_inner" transform="translate(1126.64 2291.17) rotate(-144)"/>
<use xlink:href="#Repeat%20group%202_inner" transform="translate(1061.92 2244.14) rotate(-144)"/>
<use xlink:href="#Repeat%20group%202_inner" transform="translate(997.202 2197.12) rotate(-144)"/>
<use xlink:href="#Repeat%20group%202_inner" transform="translate(932.481 2150.1) rotate(-144)"/>
<use xlink:href="#Repeat%20group%202_inner" transform="translate(867.76 2103.07) rotate(-144)"/>
<use xlink:href="#Repeat%20group%202_inner" transform="translate(803.038 2056.05) rotate(-144)"/>
<use xlink:href="#Repeat%20group%202_inner" transform="translate(738.317 2009.03) rotate(-144)"/>
<use xlink:href="#Repeat%20group%202_inner" transform="translate(673.596 1962.01) rotate(-144)"/>
<use xlink:href="#Repeat%20group%202_inner" transform="translate(608.874 1914.98) rotate(-144)"/>
<use xlink:href="#Repeat%20group%202_inner" transform="translate(544.153 1867.96) rotate(-144)"/>
<use xlink:href="#Repeat%20group%202_inner" transform="translate(479.431 1820.94) rotate(-144)"/>
<use xlink:href="#Repeat%20group%202_inner" transform="translate(414.71 1773.91) rotate(-144)"/>
<use xlink:href="#Repeat%20group%202_inner" transform="translate(349.989 1726.89) rotate(-144)"/>
<use xlink:href="#Repeat%20group%202_inner" transform="translate(285.267 1679.87) rotate(-144)"/>
<use xlink:href="#Repeat%20group%202_inner" transform="translate(220.546 1632.85) rotate(-144)"/>
<use xlink:href="#Repeat%20group%202_inner" transform="translate(155.825 1585.82) rotate(-144)"/>
<use xlink:href="#Repeat%20group%202_inner" transform="translate(91.1033 1538.8) rotate(-144)"/>
<use xlink:href="#Repeat%20group%202_inner" transform="translate(26.382 1491.78) rotate(-144)"/>
<use xlink:href="#Repeat%20group%202_inner" transform="translate(-38.3394 1444.75) rotate(-144)"/>
<use xlink:href="#Repeat%20group%202_inner" transform="translate(-103.061 1397.73) rotate(-144)"/>
<use xlink:href="#Repeat%20group%202_inner" transform="translate(-167.782 1350.71) rotate(-144)"/>
<use xlink:href="#Repeat%20group%202_inner" transform="translate(-232.503 1303.69) rotate(-144)"/>
<use xlink:href="#Repeat%20group%202_inner" transform="translate(-297.225 1256.66) rotate(-144)"/>
<use xlink:href="#Repeat%20group%202_inner" transform="translate(-361.946 1209.64) rotate(-144)"/>
<use xlink:href="#Repeat%20group%202_inner" transform="translate(618.471 2308.16) rotate(-120)"/>
<use xlink:href="#Repeat%20group%202_inner" transform="translate(578.471 2238.88) rotate(-120)"/>
<use xlink:href="#Repeat%20group%202_inner" transform="translate(538.471 2169.6) rotate(-120)"/>
<use xlink:href="#Repeat%20group%202_inner" transform="translate(498.471 2100.32) rotate(-120)"/>
<use xlink:href="#Repeat%20group%202_inner" transform="translate(458.471 2031.04) rotate(-120)"/>
<use xlink:href="#Repeat%20group%202_inner" transform="translate(418.471 1961.75) rotate(-120)"/>
<use xlink:href="#Repeat%20group%202_inner" transform="translate(378.471 1892.47) rotate(-120)"/>
<use xlink:href="#Repeat%20group%202_inner" transform="translate(338.471 1823.19) rotate(-120)"/>
<use xlink:href="#Repeat%20group%202_inner" transform="translate(298.471 1753.91) rotate(-120)"/>
<use xlink:href="#Repeat%20group%202_inner" transform="translate(258.471 1684.63) rotate(-120)"/>
<use xlink:href="#Repeat%20group%202_inner" transform="translate(218.471 1615.34) rotate(-120)"/>
<use xlink:href="#Repeat%20group%202_inner" transform="translate(178.471 1546.06) rotate(-120)"/>
<use xlink:href="#Repeat%20group%202_inner" transform="translate(138.471 1476.78) rotate(-120)"/>
<use xlink:href="#Repeat%20group%202_inner" transform="translate(98.4707 1407.5) rotate(-120)"/>
<use xlink:href="#Repeat%20group%202_inner" transform="translate(58.4707 1338.22) rotate(-120)"/>
<use xlink:href="#Repeat%20group%202_inner" transform="translate(18.4707 1268.93) rotate(-120)"/>
<use xlink:href="#Repeat%20group%202_inner" transform="translate(-21.5293 1199.65) rotate(-120)"/>
<use xlink:href="#Repeat%20group%202_inner" transform="translate(-61.5293 1130.37) rotate(-120)"/>
<use xlink:href="#Repeat%20group%202_inner" transform="translate(-101.529 1061.09) rotate(-120)"/>
<use xlink:href="#Repeat%20group%202_inner" transform="translate(-141.529 991.805) rotate(-120)"/>
<use xlink:href="#Repeat%20group%202_inner" transform="translate(-181.529 922.523) rotate(-120)"/>
<use xlink:href="#Repeat%20group%202_inner" transform="translate(-221.529 853.241) rotate(-120)"/>
<use xlink:href="#Repeat%20group%202_inner" transform="translate(-261.529 783.959) rotate(-120)"/>
<use xlink:href="#Repeat%20group%202_inner" transform="translate(-301.529 714.677) rotate(-120)"/>
<use xlink:href="#Repeat%20group%202_inner" transform="translate(-341.529 645.395) rotate(-120)"/>
<use xlink:href="#Repeat%20group%202_inner" transform="translate(107.316 2047.72) rotate(-96)"/>
<use xlink:href="#Repeat%20group%202_inner" transform="translate(98.9539 1968.16) rotate(-96)"/>
<use xlink:href="#Repeat%20group%202_inner" transform="translate(90.5917 1888.59) rotate(-96)"/>
<use xlink:href="#Repeat%20group%202_inner" transform="translate(82.2294 1809.03) rotate(-96)"/>
<use xlink:href="#Repeat%20group%202_inner" transform="translate(73.8671 1729.47) rotate(-96)"/>
<use xlink:href="#Repeat%20group%202_inner" transform="translate(65.5049 1649.91) rotate(-96)"/>
<use xlink:href="#Repeat%20group%202_inner" transform="translate(57.1426 1570.35) rotate(-96)"/>
<use xlink:href="#Repeat%20group%202_inner" transform="translate(48.7803 1490.79) rotate(-96)"/>
<use xlink:href="#Repeat%20group%202_inner" transform="translate(40.4181 1411.22) rotate(-96)"/>
<use xlink:href="#Repeat%20group%202_inner" transform="translate(32.0558 1331.66) rotate(-96)"/>
<use xlink:href="#Repeat%20group%202_inner" transform="translate(23.6935 1252.1) rotate(-96)"/>
<use xlink:href="#Repeat%20group%202_inner" transform="translate(15.3313 1172.54) rotate(-96)"/>
<use xlink:href="#Repeat%20group%202_inner" transform="translate(6.96901 1092.98) rotate(-96)"/>
<use xlink:href="#Repeat%20group%202_inner" transform="translate(-1.39326 1013.42) rotate(-96)"/>
<use xlink:href="#Repeat%20group%202_inner" transform="translate(-9.75553 933.853) rotate(-96)"/>
<use xlink:href="#Repeat%20group%202_inner" transform="translate(-18.1178 854.292) rotate(-96)"/>
<use xlink:href="#Repeat%20group%202_inner" transform="translate(-26.4801 774.73) rotate(-96)"/>
<use xlink:href="#Repeat%20group%202_inner" transform="translate(-34.8423 695.168) rotate(-96)"/>
<use xlink:href="#Repeat%20group%202_inner" transform="translate(-43.2046 615.606) rotate(-96)"/>
<use xlink:href="#Repeat%20group%202_inner" transform="translate(-51.5669 536.045) rotate(-96)"/>
<use xlink:href="#Repeat%20group%202_inner" transform="translate(-59.9291 456.483) rotate(-96)"/>
<use xlink:href="#Repeat%20group%202_inner" transform="translate(-68.2914 376.921) rotate(-96)"/>
<use xlink:href="#Repeat%20group%202_inner" transform="translate(-76.6537 297.359) rotate(-96)"/>
<use xlink:href="#Repeat%20group%202_inner" transform="translate(-85.0159 217.798) rotate(-96)"/>
<use xlink:href="#Repeat%20group%202_inner" transform="translate(-93.3782 138.236) rotate(-96)"/>
<use xlink:href="#Repeat%20group%202_inner" transform="translate(-253.714 1601.88) rotate(-72)"/>
<use xlink:href="#Repeat%20group%202_inner" transform="translate(-228.992 1525.8) rotate(-72)"/>
<use xlink:href="#Repeat%20group%202_inner" transform="translate(-204.271 1449.71) rotate(-72)"/>
<use xlink:href="#Repeat%20group%202_inner" transform="translate(-179.549 1373.63) rotate(-72)"/>
<use xlink:href="#Repeat%20group%202_inner" transform="translate(-154.828 1297.55) rotate(-72)"/>
<use xlink:href="#Repeat%20group%202_inner" transform="translate(-130.107 1221.46) rotate(-72)"/>
<use xlink:href="#Repeat%20group%202_inner" transform="translate(-105.385 1145.38) rotate(-72)"/>
<use xlink:href="#Repeat%20group%202_inner" transform="translate(-80.6639 1069.29) rotate(-72)"/>
<use xlink:href="#Repeat%20group%202_inner" transform="translate(-55.9425 993.207) rotate(-72)"/>
<use xlink:href="#Repeat%20group%202_inner" transform="translate(-31.2212 917.123) rotate(-72)"/>
<use xlink:href="#Repeat%20group%202_inner" transform="translate(-6.4998 841.038) rotate(-72)"/>
<use xlink:href="#Repeat%20group%202_inner" transform="translate(18.2216 764.954) rotate(-72)"/>
<use xlink:href="#Repeat%20group%202_inner" transform="translate(42.9429 688.869) rotate(-72)"/>
<use xlink:href="#Repeat%20group%202_inner" transform="translate(67.6643 612.785) rotate(-72)"/>
<use xlink:href="#Repeat%20group%202_inner" transform="translate(92.3857 536.7) rotate(-72)"/>
<use xlink:href="#Repeat%20group%202_inner" transform="translate(117.107 460.615) rotate(-72)"/>
<use xlink:href="#Repeat%20group%202_inner" transform="translate(141.828 384.531) rotate(-72)"/>
<use xlink:href="#Repeat%20group%202_inner" transform="translate(166.55 308.446) rotate(-72)"/>
<use xlink:href="#Repeat%20group%202_inner" transform="translate(191.271 232.362) rotate(-72)"/>
<use xlink:href="#Repeat%20group%202_inner" transform="translate(215.993 156.277) rotate(-72)"/>
<use xlink:href="#Repeat%20group%202_inner" transform="translate(240.714 80.1929) rotate(-72)"/>
<use xlink:href="#Repeat%20group%202_inner" transform="translate(265.435 4.10836) rotate(-72)"/>
<use xlink:href="#Repeat%20group%202_inner" transform="translate(290.157 -71.9762) rotate(-72)"/>
<use xlink:href="#Repeat%20group%202_inner" transform="translate(314.878 -148.061) rotate(-72)"/>
<use xlink:href="#Repeat%20group%202_inner" transform="translate(339.599 -224.145) rotate(-72)"/>
<use xlink:href="#Repeat%20group%202_inner" transform="translate(-402.193 1047.75) rotate(-48)"/>
<use xlink:href="#Repeat%20group%202_inner" transform="translate(-348.663 988.297) rotate(-48)"/>
<use xlink:href="#Repeat%20group%202_inner" transform="translate(-295.132 928.846) rotate(-48)"/>
<use xlink:href="#Repeat%20group%202_inner" transform="translate(-241.602 869.394) rotate(-48)"/>
<use xlink:href="#Repeat%20group%202_inner" transform="translate(-188.071 809.943) rotate(-48)"/>
<use xlink:href="#Repeat%20group%202_inner" transform="translate(-134.541 750.491) rotate(-48)"/>
<use xlink:href="#Repeat%20group%202_inner" transform="translate(-81.0105 691.04) rotate(-48)"/>
<use xlink:href="#Repeat%20group%202_inner" transform="translate(-27.48 631.588) rotate(-48)"/>
<use xlink:href="#Repeat%20group%202_inner" transform="translate(26.0504 572.136) rotate(-48)"/>
<use xlink:href="#Repeat%20group%202_inner" transform="translate(79.5809 512.685) rotate(-48)"/>
<use xlink:href="#Repeat%20group%202_inner" transform="translate(133.111 453.233) rotate(-48)"/>
<use xlink:href="#Repeat%20group%202_inner" transform="translate(186.642 393.782) rotate(-48)"/>
<use xlink:href="#Repeat%20group%202_inner" transform="translate(240.172 334.33) rotate(-48)"/>
<use xlink:href="#Repeat%20group%202_inner" transform="translate(293.703 274.878) rotate(-48)"/>
<use xlink:href="#Repeat%20group%202_inner" transform="translate(347.233 215.427) rotate(-48)"/>
<use xlink:href="#Repeat%20group%202_inner" transform="translate(400.764 155.975) rotate(-48)"/>
<use xlink:href="#Repeat%20group%202_inner" transform="translate(454.294 96.5237) rotate(-48)"/>
<use xlink:href="#Repeat%20group%202_inner" transform="translate(507.825 37.0721) rotate(-48)"/>
<use xlink:href="#Repeat%20group%202_inner" transform="translate(561.355 -22.3794) rotate(-48)"/>
<use xlink:href="#Repeat%20group%202_inner" transform="translate(614.885 -81.831) rotate(-48)"/>
<use xlink:href="#Repeat%20group%202_inner" transform="translate(668.416 -141.283) rotate(-48)"/>
<use xlink:href="#Repeat%20group%202_inner" transform="translate(721.946 -200.734) rotate(-48)"/>
<use xlink:href="#Repeat%20group%202_inner" transform="translate(775.477 -260.186) rotate(-48)"/>
<use xlink:href="#Repeat%20group%202_inner" transform="translate(829.007 -319.637) rotate(-48)"/>
<use xlink:href="#Repeat%20group%202_inner" transform="translate(882.538 -379.089) rotate(-48)"/>
<use xlink:href="#Repeat%20group%202_inner" transform="translate(-312.45 481.13) rotate(-24)"/>
<use xlink:href="#Repeat%20group%202_inner" transform="translate(-239.366 448.591) rotate(-24)"/>
<use xlink:href="#Repeat%20group%202_inner" transform="translate(-166.282 416.052) rotate(-24)"/>
<use xlink:href="#Repeat%20group%202_inner" transform="translate(-93.1986 383.513) rotate(-24)"/>
<use xlink:href="#Repeat%20group%202_inner" transform="translate(-20.1149 350.974) rotate(-24)"/>
<use xlink:href="#Repeat%20group%202_inner" transform="translate(52.9687 318.435) rotate(-24)"/>
<use xlink:href="#Repeat%20group%202_inner" transform="translate(126.052 285.896) rotate(-24)"/>
<use xlink:href="#Repeat%20group%202_inner" transform="translate(199.136 253.358) rotate(-24)"/>
<use xlink:href="#Repeat%20group%202_inner" transform="translate(272.22 220.819) rotate(-24)"/>
<use xlink:href="#Repeat%20group%202_inner" transform="translate(345.303 188.28) rotate(-24)"/>
<use xlink:href="#Repeat%20group%202_inner" transform="translate(418.387 155.741) rotate(-24)"/>
<use xlink:href="#Repeat%20group%202_inner" transform="translate(491.471 123.202) rotate(-24)"/>
<use xlink:href="#Repeat%20group%202_inner" transform="translate(564.554 90.6629) rotate(-24)"/>
<use xlink:href="#Repeat%20group%202_inner" transform="translate(637.638 58.124) rotate(-24)"/>
<use xlink:href="#Repeat%20group%202_inner" transform="translate(710.721 25.5851) rotate(-24)"/>
<use xlink:href="#Repeat%20group%202_inner" transform="translate(783.805 -6.95382) rotate(-24)"/>
<use xlink:href="#Repeat%20group%202_inner" transform="translate(856.889 -39.4927) rotate(-24)"/>
<use xlink:href="#Repeat%20group%202_inner" transform="translate(929.972 -72.0317) rotate(-24)"/>
<use xlink:href="#Repeat%20group%202_inner" transform="translate(1003.06 -104.571) rotate(-24)"/>
<use xlink:href="#Repeat%20group%202_inner" transform="translate(1076.14 -137.109) rotate(-24)"/>
<use xlink:href="#Repeat%20group%202_inner" transform="translate(1149.22 -169.648) rotate(-24)"/>
<use xlink:href="#Repeat%20group%202_inner" transform="translate(1222.31 -202.187) rotate(-24)"/>
<use xlink:href="#Repeat%20group%202_inner" transform="translate(1295.39 -234.726) rotate(-24)"/>
<use xlink:href="#Repeat%20group%202_inner" transform="translate(1368.47 -267.265) rotate(-24)"/>
<use xlink:href="#Repeat%20group%202_inner" transform="translate(1441.56 -299.804) rotate(-24)"/>
</svg>
